<?xml version="1.0" encoding="UTF-8"?>
<svg xmlns="http://www.w3.org/2000/svg" xmlns:xlink="http://www.w3.org/1999/xlink" viewBox="0 0 500 500" width="500px" height="500px">
<g id="surface144820358">
<path style=" stroke:none;fill-rule:nonzero;fill:rgb(10.196079%,73.725492%,61.176473%);fill-opacity:1;" d="M 210 0 C 193.554688 0 180 13.554688 180 30 L 180 50 L 101.875 50 C 100.625 49.765625 99.375 49.765625 98.125 50 L 80 50 C 79.6875 50 79.375 50 79.0625 50 C 73.554688 50.273438 69.257812 54.960938 69.53125 60.46875 C 69.804688 65.976562 74.492188 70.273438 80 70 L 90.9375 70 L 126.875 475 C 128.125 488.984375 140.039062 500 154.0625 500 L 345.9375 500 C 359.960938 500 371.875 488.984375 373.125 475 L 409.0625 70 L 420 70 C 423.59375 70.039062 426.953125 68.164062 428.789062 65.039062 C 430.585938 61.914062 430.585938 58.085938 428.789062 54.960938 C 426.953125 51.835938 423.59375 49.960938 420 50 L 320 50 L 320 30 C 320 13.554688 306.445312 0 290 0 Z M 210 20 L 290 20 C 295.625 20 300 24.375 300 30 L 300 50 L 200 50 L 200 30 C 200 24.375 204.375 20 210 20 Z M 110.9375 70 L 389.0625 70 L 353.125 473.4375 C 352.8125 476.914062 349.101562 480 345.9375 480 L 154.0625 480 C 150.898438 480 147.1875 476.914062 146.875 473.4375 Z M 189.0625 99.6875 C 188.632812 99.765625 188.203125 99.882812 187.8125 100 C 183.164062 101.054688 179.882812 105.234375 180 110 L 180 440 C 179.960938 443.59375 181.835938 446.953125 184.960938 448.789062 C 188.085938 450.585938 191.914062 450.585938 195.039062 448.789062 C 198.164062 446.953125 200.039062 443.59375 200 440 L 200 110 C 200.117188 107.109375 198.945312 104.335938 196.875 102.382812 C 194.765625 100.390625 191.914062 99.414062 189.0625 99.6875 Z M 249.0625 99.6875 C 248.632812 99.765625 248.203125 99.882812 247.8125 100 C 243.164062 101.054688 239.882812 105.234375 240 110 L 240 440 C 239.960938 443.59375 241.835938 446.953125 244.960938 448.789062 C 248.085938 450.585938 251.914062 450.585938 255.039062 448.789062 C 258.164062 446.953125 260.039062 443.59375 260 440 L 260 110 C 260.117188 107.109375 258.945312 104.335938 256.875 102.382812 C 254.765625 100.390625 251.914062 99.414062 249.0625 99.6875 Z M 309.0625 99.6875 C 308.632812 99.765625 308.203125 99.882812 307.8125 100 C 303.164062 101.054688 299.882812 105.234375 300 110 L 300 440 C 299.960938 443.59375 301.835938 446.953125 304.960938 448.789062 C 308.085938 450.585938 311.914062 450.585938 315.039062 448.789062 C 318.164062 446.953125 320.039062 443.59375 320 440 L 320 110 C 320.117188 107.109375 318.945312 104.335938 316.875 102.382812 C 314.765625 100.390625 311.914062 99.414062 309.0625 99.6875 Z M 309.0625 99.6875 "/>
</g>
</svg>
