<?xml version="1.0" encoding="UTF-8"?>
<svg xmlns="http://www.w3.org/2000/svg" xmlns:xlink="http://www.w3.org/1999/xlink" viewBox="0 0 250 250" width="250px" height="250px">
<g id="surface144820365">
<path style=" stroke:none;fill-rule:nonzero;fill:rgb(10.196079%,73.725492%,61.176473%);fill-opacity:1;" d="M 105 0 C 96.777344 0 90 6.777344 90 15 L 90 25 L 50.9375 25 C 50.3125 24.882812 49.6875 24.882812 49.0625 25 L 40 25 C 39.84375 25 39.6875 25 39.53125 25 C 36.777344 25.136719 34.628906 27.480469 34.765625 30.234375 C 34.902344 32.988281 37.246094 35.136719 40 35 L 45.46875 35 L 63.4375 237.5 C 64.0625 244.492188 70.019531 250 77.03125 250 L 172.96875 250 C 179.980469 250 185.9375 244.492188 186.5625 237.5 L 204.53125 35 L 210 35 C 211.796875 35.019531 213.476562 34.082031 214.394531 32.519531 C 215.292969 30.957031 215.292969 29.042969 214.394531 27.480469 C 213.476562 25.917969 211.796875 24.980469 210 25 L 160 25 L 160 15 C 160 6.777344 153.222656 0 145 0 Z M 105 10 L 145 10 C 147.8125 10 150 12.1875 150 15 L 150 25 L 100 25 L 100 15 C 100 12.1875 102.1875 10 105 10 Z M 55.46875 35 L 194.53125 35 L 176.5625 236.71875 C 176.40625 238.457031 174.550781 240 172.96875 240 L 77.03125 240 C 75.449219 240 73.59375 238.457031 73.4375 236.71875 Z M 94.53125 49.84375 C 94.316406 49.882812 94.101562 49.941406 93.90625 50 C 91.582031 50.527344 89.941406 52.617188 90 55 L 90 220 C 89.980469 221.796875 90.917969 223.476562 92.480469 224.394531 C 94.042969 225.292969 95.957031 225.292969 97.519531 224.394531 C 99.082031 223.476562 100.019531 221.796875 100 220 L 100 55 C 100.058594 53.554688 99.472656 52.167969 98.4375 51.191406 C 97.382812 50.195312 95.957031 49.707031 94.53125 49.84375 Z M 124.53125 49.84375 C 124.316406 49.882812 124.101562 49.941406 123.90625 50 C 121.582031 50.527344 119.941406 52.617188 120 55 L 120 220 C 119.980469 221.796875 120.917969 223.476562 122.480469 224.394531 C 124.042969 225.292969 125.957031 225.292969 127.519531 224.394531 C 129.082031 223.476562 130.019531 221.796875 130 220 L 130 55 C 130.058594 53.554688 129.472656 52.167969 128.4375 51.191406 C 127.382812 50.195312 125.957031 49.707031 124.53125 49.84375 Z M 154.53125 49.84375 C 154.316406 49.882812 154.101562 49.941406 153.90625 50 C 151.582031 50.527344 149.941406 52.617188 150 55 L 150 220 C 149.980469 221.796875 150.917969 223.476562 152.480469 224.394531 C 154.042969 225.292969 155.957031 225.292969 157.519531 224.394531 C 159.082031 223.476562 160.019531 221.796875 160 220 L 160 55 C 160.058594 53.554688 159.472656 52.167969 158.4375 51.191406 C 157.382812 50.195312 155.957031 49.707031 154.53125 49.84375 Z M 154.53125 49.84375 "/>
</g>
</svg>
