<?xml version="1.0" encoding="UTF-8"?>
<svg xmlns="http://www.w3.org/2000/svg" xmlns:xlink="http://www.w3.org/1999/xlink" viewBox="0 0 150 150" width="150px" height="150px">
<g id="surface145045191">
<path style=" stroke:none;fill-rule:nonzero;fill:rgb(10.196079%,73.725492%,61.176473%);fill-opacity:1;" d="M 63 0 C 58.066406 0 54 4.066406 54 9 L 54 15 L 30.5625 15 C 30.1875 14.929688 29.8125 14.929688 29.4375 15 L 24 15 C 23.90625 15 23.8125 15 23.71875 15 C 22.066406 15.082031 20.777344 16.488281 20.859375 18.140625 C 20.941406 19.792969 22.347656 21.082031 24 21 L 27.28125 21 L 38.0625 142.5 C 38.4375 146.695312 42.011719 150 46.21875 150 L 103.78125 150 C 107.988281 150 111.5625 146.695312 111.9375 142.5 L 122.71875 21 L 126 21 C 127.078125 21.011719 128.085938 20.449219 128.636719 19.511719 C 129.175781 18.574219 129.175781 17.425781 128.636719 16.488281 C 128.085938 15.550781 127.078125 14.988281 126 15 L 96 15 L 96 9 C 96 4.066406 91.933594 0 87 0 Z M 63 6 L 87 6 C 88.6875 6 90 7.3125 90 9 L 90 15 L 60 15 L 60 9 C 60 7.3125 61.3125 6 63 6 Z M 33.28125 21 L 116.71875 21 L 105.9375 142.03125 C 105.84375 143.074219 104.730469 144 103.78125 144 L 46.21875 144 C 45.269531 144 44.15625 143.074219 44.0625 142.03125 Z M 56.71875 29.90625 C 56.589844 29.929688 56.460938 29.964844 56.34375 30 C 54.949219 30.316406 53.964844 31.570312 54 33 L 54 132 C 53.988281 133.078125 54.550781 134.085938 55.488281 134.636719 C 56.425781 135.175781 57.574219 135.175781 58.511719 134.636719 C 59.449219 134.085938 60.011719 133.078125 60 132 L 60 33 C 60.035156 32.132812 59.683594 31.300781 59.0625 30.714844 C 58.429688 30.117188 57.574219 29.824219 56.71875 29.90625 Z M 74.71875 29.90625 C 74.589844 29.929688 74.460938 29.964844 74.34375 30 C 72.949219 30.316406 71.964844 31.570312 72 33 L 72 132 C 71.988281 133.078125 72.550781 134.085938 73.488281 134.636719 C 74.425781 135.175781 75.574219 135.175781 76.511719 134.636719 C 77.449219 134.085938 78.011719 133.078125 78 132 L 78 33 C 78.035156 32.132812 77.683594 31.300781 77.0625 30.714844 C 76.429688 30.117188 75.574219 29.824219 74.71875 29.90625 Z M 92.71875 29.90625 C 92.589844 29.929688 92.460938 29.964844 92.34375 30 C 90.949219 30.316406 89.964844 31.570312 90 33 L 90 132 C 89.988281 133.078125 90.550781 134.085938 91.488281 134.636719 C 92.425781 135.175781 93.574219 135.175781 94.511719 134.636719 C 95.449219 134.085938 96.011719 133.078125 96 132 L 96 33 C 96.035156 32.132812 95.683594 31.300781 95.0625 30.714844 C 94.429688 30.117188 93.574219 29.824219 92.71875 29.90625 Z M 92.71875 29.90625 "/>
</g>
 <!-- <rect width="70%" height="90%" fill="light-green"/> -->
</svg>
