<?xml version="1.0" encoding="UTF-8"?>
<svg xmlns="http://www.w3.org/2000/svg" xmlns:xlink="http://www.w3.org/1999/xlink" viewBox="0 0 100 100" width="100px" height="100px">
<g id="surface144648693">
<path style=" stroke:none;fill-rule:nonzero;fill:rgb(10.196079%,73.725492%,61.176473%);fill-opacity:1;" d="M 42 0 C 38.710938 0 36 2.710938 36 6 L 36 10 L 20.375 10 C 20.125 9.953125 19.875 9.953125 19.625 10 L 16 10 C 15.9375 10 15.875 10 15.8125 10 C 14.710938 10.054688 13.851562 10.992188 13.90625 12.09375 C 13.960938 13.195312 14.898438 14.054688 16 14 L 18.1875 14 L 25.375 95 C 25.625 97.796875 28.007812 100 30.8125 100 L 69.1875 100 C 71.992188 100 74.375 97.796875 74.625 95 L 81.8125 14 L 84 14 C 84.71875 14.007812 85.390625 13.632812 85.757812 13.007812 C 86.117188 12.382812 86.117188 11.617188 85.757812 10.992188 C 85.390625 10.367188 84.71875 9.992188 84 10 L 64 10 L 64 6 C 64 2.710938 61.289062 0 58 0 Z M 42 4 L 58 4 C 59.125 4 60 4.875 60 6 L 60 10 L 40 10 L 40 6 C 40 4.875 40.875 4 42 4 Z M 22.1875 14 L 77.8125 14 L 70.625 94.6875 C 70.5625 95.382812 69.820312 96 69.1875 96 L 30.8125 96 C 30.179688 96 29.4375 95.382812 29.375 94.6875 Z M 37.8125 19.9375 C 37.726562 19.953125 37.640625 19.976562 37.5625 20 C 36.632812 20.210938 35.976562 21.046875 36 22 L 36 88 C 35.992188 88.71875 36.367188 89.390625 36.992188 89.757812 C 37.617188 90.117188 38.382812 90.117188 39.007812 89.757812 C 39.632812 89.390625 40.007812 88.71875 40 88 L 40 22 C 40.023438 21.421875 39.789062 20.867188 39.375 20.476562 C 38.953125 20.078125 38.382812 19.882812 37.8125 19.9375 Z M 49.8125 19.9375 C 49.726562 19.953125 49.640625 19.976562 49.5625 20 C 48.632812 20.210938 47.976562 21.046875 48 22 L 48 88 C 47.992188 88.71875 48.367188 89.390625 48.992188 89.757812 C 49.617188 90.117188 50.382812 90.117188 51.007812 89.757812 C 51.632812 89.390625 52.007812 88.71875 52 88 L 52 22 C 52.023438 21.421875 51.789062 20.867188 51.375 20.476562 C 50.953125 20.078125 50.382812 19.882812 49.8125 19.9375 Z M 61.8125 19.9375 C 61.726562 19.953125 61.640625 19.976562 61.5625 20 C 60.632812 20.210938 59.976562 21.046875 60 22 L 60 88 C 59.992188 88.71875 60.367188 89.390625 60.992188 89.757812 C 61.617188 90.117188 62.382812 90.117188 63.007812 89.757812 C 63.632812 89.390625 64.007812 88.71875 64 88 L 64 22 C 64.023438 21.421875 63.789062 20.867188 63.375 20.476562 C 62.953125 20.078125 62.382812 19.882812 61.8125 19.9375 Z M 61.8125 19.9375 "/>
</g>
</svg>
